<svg xmlns="http://www.w3.org/2000/svg" width="1024" height="1024" viewBox="0 0 1024 1024">
  <defs>
    <linearGradient id="bg" x1="0" y1="0" x2="1" y2="1">
      <stop offset="0" stop-color="#060A12"/>
      <stop offset="0.6" stop-color="#0B1326"/>
      <stop offset="1" stop-color="#05060B"/>
    </linearGradient>
    <radialGradient id="glowL" cx="28%" cy="40%" r="60%">
      <stop offset="0" stop-color="#7C3AED" stop-opacity="0.45"/>
      <stop offset="1" stop-color="#7C3AED" stop-opacity="0"/>
    </radialGradient>
    <radialGradient id="glowR" cx="78%" cy="48%" r="60%">
      <stop offset="0" stop-color="#22D3EE" stop-opacity="0.40"/>
      <stop offset="1" stop-color="#22D3EE" stop-opacity="0"/>
    </radialGradient>
    <linearGradient id="stroke" x1="0" y1="0" x2="1" y2="0">
      <stop offset="0" stop-color="#7C3AED"/>
      <stop offset="1" stop-color="#22D3EE"/>
    </linearGradient>
    <linearGradient id="card" x1="0" y1="0" x2="0" y2="1">
      <stop offset="0" stop-color="#0F172A" stop-opacity="0.86"/>
      <stop offset="1" stop-color="#0B1224" stop-opacity="0.76"/>
    </linearGradient>
    <linearGradient id="chartUp" x1="0" y1="0" x2="1" y2="0">
      <stop offset="0" stop-color="#22D3EE"/>
      <stop offset="1" stop-color="#34D399"/>
    </linearGradient>
    <linearGradient id="chartDown" x1="0" y1="0" x2="1" y2="0">
      <stop offset="0" stop-color="#F97316"/>
      <stop offset="1" stop-color="#EF4444"/>
    </linearGradient>
    <filter id="blur60" x="-100%" y="-100%" width="300%" height="300%">
      <feGaussianBlur stdDeviation="40"/>
    </filter>
    <filter id="shadow" x="-100%" y="-100%" width="300%" height="300%">
      <feDropShadow dx="0" dy="18" stdDeviation="18" flood-color="#000000" flood-opacity="0.45"/>
    </filter>
  </defs>

  <rect width="1024" height="1024" fill="url(#bg)"/>
  <circle cx="260" cy="460" r="520" fill="url(#glowL)" filter="url(#blur60)"/>
  <circle cx="790" cy="480" r="520" fill="url(#glowR)" filter="url(#blur60)"/>

  <g filter="url(#shadow)">
    <rect x="96" y="140" width="832" height="744" rx="44" fill="url(#card)" stroke="url(#stroke)" stroke-opacity="0.55"/>
  </g>

  <g>
    <rect x="142" y="188" width="740" height="84" rx="22" fill="#0B1224" fill-opacity="0.55" stroke="#FFFFFF" stroke-opacity="0.08"/>
    <g transform="translate(178 210)">
      <circle cx="22" cy="22" r="22" fill="#22D3EE" fill-opacity="0.14" stroke="#22D3EE" stroke-opacity="0.55"/>
      <path d="M16 26c4-6 8-8 12-8s8 2 12 8" fill="none" stroke="#A5F3FC" stroke-width="2" stroke-linecap="round"/>
      <path d="M22 20a6 6 0 100-12 6 6 0 000 12z" fill="none" stroke="#A5F3FC" stroke-width="2"/>
    </g>
    <g transform="translate(244 206)">
      <text x="0" y="22" font-family="Inter, system-ui, -apple-system, Segoe UI, Roboto, Arial" font-size="14" fill="#93C5FD" letter-spacing="2" opacity="0.85">COPY TRADING</text>
      <text x="0" y="54" font-family="Inter, system-ui, -apple-system, Segoe UI, Roboto, Arial" font-size="26" font-weight="800" fill="#FFFFFF">Mirror Top Traders</text>
    </g>
    <g transform="translate(730 206)">
      <rect x="0" y="0" width="132" height="40" rx="16" fill="#0B1224" fill-opacity="0.7" stroke="#FFFFFF" stroke-opacity="0.10"/>
      <circle cx="22" cy="20" r="6" fill="#34D399"/>
      <text x="40" y="25" font-family="Inter, system-ui, -apple-system, Segoe UI, Roboto, Arial" font-size="12" fill="#E5E7EB">Live</text>
    </g>
  </g>

  <g transform="translate(150 318)">
    <rect x="0" y="0" width="310" height="486" rx="36" fill="#0B1224" fill-opacity="0.48" stroke="#FFFFFF" stroke-opacity="0.08"/>
    <g transform="translate(28 28)">
      <text x="0" y="14" font-family="Inter, system-ui, -apple-system, Segoe UI, Roboto, Arial" font-size="12" fill="#94A3B8" letter-spacing="2">LEADER</text>
      <text x="0" y="44" font-family="Inter, system-ui, -apple-system, Segoe UI, Roboto, Arial" font-size="20" font-weight="800" fill="#FFFFFF">Master Trader</text>
      <rect x="0" y="64" width="108" height="26" rx="13" fill="#7C3AED" fill-opacity="0.12" stroke="#7C3AED" stroke-opacity="0.35"/>
      <text x="14" y="82" font-family="Inter, system-ui, -apple-system, Segoe UI, Roboto, Arial" font-size="11" fill="#E9D5FF">HIGH WIN RATE</text>
    </g>
    <g transform="translate(28 130)">
      <rect x="0" y="0" width="254" height="158" rx="22" fill="#0F172A" fill-opacity="0.85" stroke="#FFFFFF" stroke-opacity="0.08"/>
      <path d="M18 118c30-46 56-34 80-78 20 50 52 36 78 88 22-26 40-20 60-50" fill="none" stroke="url(#chartUp)" stroke-width="3" stroke-linecap="round" stroke-linejoin="round"/>
      <path d="M18 118h218" stroke="#FFFFFF" stroke-opacity="0.10" stroke-width="2"/>
      <circle cx="18" cy="118" r="4" fill="#22D3EE"/>
      <circle cx="98" cy="40" r="4" fill="#34D399"/>
      <circle cx="236" cy="68" r="4" fill="#22D3EE"/>
    </g>
    <g transform="translate(28 308)">
      <text x="0" y="14" font-family="Inter, system-ui, -apple-system, Segoe UI, Roboto, Arial" font-size="12" fill="#94A3B8" letter-spacing="2">RECENT</text>
      <rect x="0" y="24" width="254" height="112" rx="22" fill="#0F172A" fill-opacity="0.85" stroke="#FFFFFF" stroke-opacity="0.08"/>
      <text x="16" y="56" font-family="ui-monospace, SFMono-Regular, Menlo, Monaco, Consolas, 'Liberation Mono', 'Courier New', monospace" font-size="12" fill="#C7D2FE">BTCUSDT</text>
      <text x="190" y="56" font-family="ui-monospace, SFMono-Regular, Menlo, Monaco, Consolas, 'Liberation Mono', 'Courier New', monospace" font-size="12" fill="#34D399">BUY</text>
      <text x="16" y="80" font-family="ui-monospace, SFMono-Regular, Menlo, Monaco, Consolas, 'Liberation Mono', 'Courier New', monospace" font-size="12" fill="#C7D2FE">ETHUSDT</text>
      <text x="186" y="80" font-family="ui-monospace, SFMono-Regular, Menlo, Monaco, Consolas, 'Liberation Mono', 'Courier New', monospace" font-size="12" fill="#EF4444">SELL</text>
      <text x="16" y="104" font-family="ui-monospace, SFMono-Regular, Menlo, Monaco, Consolas, 'Liberation Mono', 'Courier New', monospace" font-size="12" fill="#C7D2FE">SOLUSDT</text>
      <text x="190" y="104" font-family="ui-monospace, SFMono-Regular, Menlo, Monaco, Consolas, 'Liberation Mono', 'Courier New', monospace" font-size="12" fill="#34D399">BUY</text>
    </g>
  </g>

  <g transform="translate(564 318)">
    <rect x="0" y="0" width="310" height="486" rx="36" fill="#0B1224" fill-opacity="0.48" stroke="#FFFFFF" stroke-opacity="0.08"/>
    <g transform="translate(28 28)">
      <text x="0" y="14" font-family="Inter, system-ui, -apple-system, Segoe UI, Roboto, Arial" font-size="12" fill="#94A3B8" letter-spacing="2">YOU</text>
      <text x="0" y="44" font-family="Inter, system-ui, -apple-system, Segoe UI, Roboto, Arial" font-size="20" font-weight="800" fill="#FFFFFF">Copy Trader</text>
      <rect x="0" y="64" width="136" height="26" rx="13" fill="#22D3EE" fill-opacity="0.12" stroke="#22D3EE" stroke-opacity="0.35"/>
      <text x="14" y="82" font-family="Inter, system-ui, -apple-system, Segoe UI, Roboto, Arial" font-size="11" fill="#A5F3FC">AUTO COPY ON</text>
    </g>
    <g transform="translate(28 130)">
      <rect x="0" y="0" width="254" height="158" rx="22" fill="#0F172A" fill-opacity="0.85" stroke="#FFFFFF" stroke-opacity="0.08"/>
      <path d="M18 116c26-34 44-28 64-64 24 46 50 40 78 86 22-18 40-18 60-42" fill="none" stroke="url(#chartUp)" stroke-width="3" stroke-linecap="round" stroke-linejoin="round"/>
      <path d="M18 116h218" stroke="#FFFFFF" stroke-opacity="0.10" stroke-width="2"/>
      <circle cx="18" cy="116" r="4" fill="#22D3EE"/>
      <circle cx="146" cy="72" r="4" fill="#34D399"/>
      <circle cx="236" cy="86" r="4" fill="#22D3EE"/>
    </g>
    <g transform="translate(28 308)">
      <text x="0" y="14" font-family="Inter, system-ui, -apple-system, Segoe UI, Roboto, Arial" font-size="12" fill="#94A3B8" letter-spacing="2">RISK</text>
      <rect x="0" y="24" width="254" height="112" rx="22" fill="#0F172A" fill-opacity="0.85" stroke="#FFFFFF" stroke-opacity="0.08"/>
      <text x="16" y="56" font-family="Inter, system-ui, -apple-system, Segoe UI, Roboto, Arial" font-size="12" fill="#E5E7EB">Stop-loss</text>
      <text x="190" y="56" font-family="Inter, system-ui, -apple-system, Segoe UI, Roboto, Arial" font-size="12" fill="#A5F3FC">5%</text>
      <rect x="16" y="70" width="222" height="10" rx="5" fill="#0B1224" fill-opacity="0.9" stroke="#FFFFFF" stroke-opacity="0.08"/>
      <rect x="16" y="70" width="138" height="10" rx="5" fill="url(#stroke)"/>
      <text x="16" y="102" font-family="Inter, system-ui, -apple-system, Segoe UI, Roboto, Arial" font-size="12" fill="#94A3B8">Copy amount</text>
      <text x="160" y="102" font-family="Inter, system-ui, -apple-system, Segoe UI, Roboto, Arial" font-size="12" fill="#94A3B8">100 USDT</text>
    </g>
  </g>

  <g>
    <path d="M460 556c34-22 70-22 104 0" fill="none" stroke="url(#stroke)" stroke-width="3" stroke-linecap="round" stroke-dasharray="6 10" opacity="0.9"/>
    <path d="M460 556c34 22 70 22 104 0" fill="none" stroke="url(#stroke)" stroke-width="3" stroke-linecap="round" stroke-dasharray="6 10" opacity="0.55"/>
    <circle cx="512" cy="556" r="34" fill="#0F172A" fill-opacity="0.92" stroke="url(#stroke)" stroke-opacity="0.7"/>
    <path d="M500 556h24" stroke="#E5E7EB" stroke-width="3" stroke-linecap="round"/>
    <path d="M512 544v24" stroke="#E5E7EB" stroke-width="3" stroke-linecap="round"/>
  </g>

  <g transform="translate(330 826)">
    <rect x="0" y="0" width="364" height="70" rx="22" fill="#7C3AED" fill-opacity="0.16" stroke="#7C3AED" stroke-opacity="0.45"/>
    <g transform="translate(18 20)">
      <circle cx="16" cy="16" r="16" fill="#7C3AED" fill-opacity="0.24" stroke="#E9D5FF" stroke-opacity="0.55"/>
      <path d="M12 16h8" stroke="#FFFFFF" stroke-width="2" stroke-linecap="round"/>
      <path d="M16 12v8" stroke="#FFFFFF" stroke-width="2" stroke-linecap="round"/>
    </g>
    <text x="66" y="32" font-family="Inter, system-ui, -apple-system, Segoe UI, Roboto, Arial" font-size="14" font-weight="800" fill="#FFFFFF">Start Copying</text>
    <text x="66" y="52" font-family="Inter, system-ui, -apple-system, Segoe UI, Roboto, Arial" font-size="12" fill="#C7D2FE" opacity="0.9">Select leaders, set risk, auto mirror trades</text>
  </g>
</svg>

